<?xml version="1.0" encoding="utf-8"?>
<!-- Generator: Adobe Illustrator 20.0.0, SVG Export Plug-In . SVG Version: 6.00 Build 0)  -->
<svg version="1.1" id="Layer_1" xmlns="http://www.w3.org/2000/svg" xmlns:xlink="http://www.w3.org/1999/xlink" x="0px" y="0px"
	 viewBox="0 0 122 123" style="enable-background:new 0 0 122 123;" xml:space="preserve">
<style type="text/css">
	.st0{fill:#020203;}
	.st1{fill:#FFFFFF;}
	.st2{fill:#1B9DD9;}
</style>
<rect x="-0.4" y="0.4" class="st0" width="122.7" height="122.7"/>
<path class="st1" d="M111.6,62c0,28-22.7,50.6-50.6,50.6c-28,0-50.6-22.7-50.6-50.6c0-28,22.7-50.6,50.6-50.6
	C88.9,11.3,111.6,34,111.6,62z M60.9,21.7c-22.3,0-40.3,18-40.3,40.3s18,40.3,40.3,40.3s40.3-18.1,40.3-40.3
	C101.3,39.7,83.2,21.7,60.9,21.7z"/>
<path class="st2" d="M60.9,48.8c-5,0-9-4-9-9s4-9,9-9s9,4,9,9C70,44.8,65.9,48.8,60.9,48.8z"/>
</svg>
